# xmcd
#
# Track frame offsets:
# 150
# 13634
# 24019
# 36556
# 47741
# 62492
# 75285
# 88175
# 100386
# 114070
#
# Disc length: 1786 seconds
#
#
# Revision: 0
# Processed by: cddbd v1.5.2PL0 Copyright (c) Steve Scherf et al.
# Submitted via: Nero 7, 0, 8, 2 
#
DISCID=6a06f80a
DTITLE=Bill Monroe - Master of Bluegrass
DYEAR=1981
DGENRE=Bluegrass
TTITLE0=Old Ebenezer Scrooge
TTITLE1=Right, Right On
TTITLE2=Melissa's Waltz for J.B.
TTITLE3=Fair Play
TTITLE4=Evening Prayer Blues
TTITLE5=Go Hither to Go Yonder
TTITLE6=Lochwood
TTITLE7=Lady of the Blue Ridge
TTITLE8=Old Danger Field
TTITLE9=My Last Days on Earth
EXTD=
EXTT0=
EXTT1=
EXTT2=
EXTT3=
EXTT4=
EXTT5=
EXTT6=
EXTT7=
EXTT8=
EXTT9=
PLAYORDER=
